<svg xmlns="http://www.w3.org/2000/svg" width="280" height="280" viewBox="0 0 280 280">
  <g id="my_appointment" transform="translate(2150 -6050)">
    <g id="my_appointment-2" data-name="my_appointment">
      <g id="calendar_1_" data-name="calendar (1)" transform="translate(-2110 6090)">
        <path id="Path_12971" data-name="Path 12971" d="M197.548,232H107.226A3.228,3.228,0,0,0,104,235.226v64.516a3.228,3.228,0,0,0,3.226,3.226H191.1V293.29h9.677V235.226A3.228,3.228,0,0,0,197.548,232Zm0,0" transform="translate(-62.064 -138.452)" fill="#0babde"/>
        <path id="Path_12972" data-name="Path 12972" d="M167.742,157.161V260.387H12.9V144.258h6.452V253.935H130.369l30.922-30.922V160.387h-6.452v58.065H125.807v29.032h-100V144.258h87.1v-6.452H6.452V118.451h100V112h-100A6.458,6.458,0,0,0,0,118.451v19.355a6.458,6.458,0,0,0,6.452,6.452V266.838H174.194V157.161ZM132.258,224.9h18.019l-18.019,18.019Zm0,0" transform="translate(0 -66.838)" fill="#5c6275"/>
        <path id="Path_12973" data-name="Path 12973" d="M32,144h6.452v6.452H32Zm0,0" transform="translate(-19.096 -85.935)" fill="#5c6275"/>
        <path id="Path_12974" data-name="Path 12974" d="M64,144h6.452v6.452H64Zm0,0" transform="translate(-38.193 -85.935)" fill="#5c6275"/>
        <path id="Path_12975" data-name="Path 12975" d="M158.581,309.161h-12.9A9.69,9.69,0,0,1,136,299.484V273.677A9.69,9.69,0,0,1,145.677,264h12.9a9.69,9.69,0,0,1,9.677,9.677v25.807A9.69,9.69,0,0,1,158.581,309.161Zm-12.9-38.71a3.23,3.23,0,0,0-3.226,3.226v25.807a3.23,3.23,0,0,0,3.226,3.226h12.9a3.23,3.23,0,0,0,3.226-3.226V273.677a3.23,3.23,0,0,0-3.226-3.226Zm0,0" transform="translate(-81.161 -157.548)" fill="#fff"/>
        <path id="Path_12976" data-name="Path 12976" d="M264.258,273.677A9.69,9.69,0,0,0,254.581,264h-12.9A9.69,9.69,0,0,0,232,273.677v6.452a9.616,9.616,0,0,0,2.515,6.452A9.6,9.6,0,0,0,232,293.032v6.452a9.69,9.69,0,0,0,9.677,9.677h12.9a9.69,9.69,0,0,0,9.677-9.677v-6.452a9.616,9.616,0,0,0-2.515-6.452,9.6,9.6,0,0,0,2.515-6.452Zm-25.806,0a3.23,3.23,0,0,1,3.226-3.226h12.9a3.23,3.23,0,0,1,3.226,3.226v6.452a3.23,3.23,0,0,1-3.226,3.226h-12.9a3.23,3.23,0,0,1-3.226-3.226Zm19.355,25.807a3.23,3.23,0,0,1-3.226,3.226h-12.9a3.23,3.23,0,0,1-3.226-3.226v-6.452a3.23,3.23,0,0,1,3.226-3.226h12.9a3.23,3.23,0,0,1,3.226,3.226Zm0,0" transform="translate(-138.451 -157.548)" fill="#fff"/>
        <path id="Path_12977" data-name="Path 12977" d="M304.387,96.774a48.387,48.387,0,1,1,48.387-48.387A48.442,48.442,0,0,1,304.387,96.774Zm0-80.645a32.258,32.258,0,1,0,32.258,32.258A32.294,32.294,0,0,0,304.387,16.129Zm0,0" transform="translate(-152.774)" fill="#0babde"/>
        <path id="Path_12978" data-name="Path 12978" d="M368,80V99.355h12.9V92.9h-6.452V80Zm0,0" transform="translate(-219.612 -47.742)" fill="#5c6275"/>
        <path id="Path_12979" data-name="Path 12979" d="M342.767,32a35.552,35.552,0,0,0-22.455,8.013l4.087,4.995a29.058,29.058,0,0,1,15.141-6.352V44.9h6.452V38.642a29.074,29.074,0,0,1,25.616,25.616h-6.261V70.71H371.6a29.058,29.058,0,0,1-6.352,15.141l4.995,4.087A35.48,35.48,0,0,0,342.767,32Zm0,0" transform="translate(-191.154 -19.097)" fill="#5c6275"/>
        <path id="Path_12980" data-name="Path 12980" d="M326.71,115.6v-6.248h-6.452v6.261a29.074,29.074,0,0,1-25.616-25.616H300.9V83.541h-6.248A29.058,29.058,0,0,1,301.007,68.4l-4.995-4.087a35.48,35.48,0,0,0,49.926,49.926l-4.087-4.995A29.058,29.058,0,0,1,326.71,115.6Zm0,0" transform="translate(-171.871 -38.38)" fill="#5c6275"/>
        <path id="Path_12981" data-name="Path 12981" d="M96,144h6.452v6.452H96Zm0,0" transform="translate(-57.29 -85.935)" fill="#5c6275"/>
      </g>
      <rect id="Rectangle_1639" data-name="Rectangle 1639" width="280" height="280" transform="translate(-2150 6050)" fill="none"/>
    </g>
  </g>
</svg>
