<svg xmlns="http://www.w3.org/2000/svg" width="280" height="280" viewBox="0 0 280 280">
  <g id="my_payments" transform="translate(1576 -6050)">
    <g id="my_payments-2" data-name="my_payments" transform="translate(474 -331)">
      <g id="money_1_" data-name="money (1)" transform="translate(-2022.901 6437.331)">
        <g id="Group_8774" data-name="Group 8774">
          <path id="Path_12982" data-name="Path 12982" d="M47.284,94.567A47.284,47.284,0,1,1,94.567,47.284,47.338,47.338,0,0,1,47.284,94.567Zm0,0" fill="#0babde"/>
          <path id="Path_12983" data-name="Path 12983" d="M385.124,130.608l-15.431-15.43a7.288,7.288,0,0,0-10.286,0l-25.72,25.72a7.281,7.281,0,0,0,0,10.286l1.4,1.4h16.68a7.272,7.272,0,0,1,7.274,7.274v3.557l2.572.993,23.514-23.51a7.282,7.282,0,0,0,0-10.29Zm0,0" transform="translate(-180.816 -61.654)" fill="#0babde"/>
          <path id="Path_12984" data-name="Path 12984" d="M299.647,324.372H263.274A7.282,7.282,0,0,1,256,317.1V295.274A7.282,7.282,0,0,1,263.274,288h36.372a7.282,7.282,0,0,1,7.274,7.274V317.1A7.282,7.282,0,0,1,299.647,324.372Zm0,0" transform="translate(-139.609 -157.061)" fill="#0babde"/>
          <path id="Path_12996" data-name="Path 12996" d="M-12.2-6.542a6.09,6.09,0,0,1-2.3,5.027A9.974,9.974,0,0,1-20.883.322,15,15,0,0,1-27.554-1.1V-5.736a27.49,27.49,0,0,0,4.036,1.5A11.944,11.944,0,0,0-20.5-3.8a4.3,4.3,0,0,0,2.522-.628A2.149,2.149,0,0,0-17.1-6.3a2.063,2.063,0,0,0-.387-1.233,4.327,4.327,0,0,0-1.136-1.039,29.217,29.217,0,0,0-3.053-1.6,14.473,14.473,0,0,1-3.239-1.95,7.319,7.319,0,0,1-1.724-2.175,6.208,6.208,0,0,1-.645-2.9,6.088,6.088,0,0,1,2.119-4.915A8.8,8.8,0,0,1-19.3-23.9a13.831,13.831,0,0,1,3.5.435,24.09,24.09,0,0,1,3.489,1.225l-1.611,3.883a23.575,23.575,0,0,0-3.118-1.08,10.036,10.036,0,0,0-2.425-.306,3.211,3.211,0,0,0-2.175.661,2.179,2.179,0,0,0-.757,1.724,2.134,2.134,0,0,0,.306,1.152,3.366,3.366,0,0,0,.975.951A30.142,30.142,0,0,0-17.95-13.6a12.6,12.6,0,0,1,4.528,3.166A6.179,6.179,0,0,1-12.2-6.542ZM-.854-14.856a3.117,3.117,0,0,0-2.449.991,4.586,4.586,0,0,0-1.015,2.812h6.9a4.1,4.1,0,0,0-.951-2.812A3.219,3.219,0,0,0-.854-14.856ZM-.161.322a9.3,9.3,0,0,1-6.8-2.4,9.091,9.091,0,0,1-2.449-6.8q0-4.528,2.264-7a8.061,8.061,0,0,1,6.26-2.473A7.935,7.935,0,0,1,5.06-16.178a8.23,8.23,0,0,1,2.127,6.01v2.385H-4.431A4.73,4.73,0,0,0-3.19-4.512,4.366,4.366,0,0,0,.064-3.335a13.512,13.512,0,0,0,3.078-.338,15.4,15.4,0,0,0,3.029-1.08v3.8A11.54,11.54,0,0,1,3.416.008,17.373,17.373,0,0,1-.161.322ZM15.9-9.8l2.143-2.739,5.043-5.479h5.543L21.479-10.2,29.068,0H23.4L18.208-7.3,16.1-5.607V0H11.183V-25.072H16.1V-13.89L15.839-9.8Z" transform="translate(44.458 55.914)" fill="#fff"/>
        </g>
        <path id="Path_12988" data-name="Path 12988" d="M128,352h7.274v7.274H128Zm0,0" transform="translate(-69.805 -191.963)" fill="#5c6275"/>
        <path id="Path_12989" data-name="Path 12989" d="M160,352h7.274v7.274H160Zm0,0" transform="translate(-87.256 -191.963)" fill="#5c6275"/>
        <path id="Path_12990" data-name="Path 12990" d="M192,352h7.274v7.274H192Zm0,0" transform="translate(-104.707 -191.963)" fill="#5c6275"/>
        <path id="Path_12991" data-name="Path 12991" d="M224,352h7.274v7.274H224Zm0,0" transform="translate(-122.158 -191.963)" fill="#5c6275"/>
        <path id="Path_12992" data-name="Path 12992" d="M128,320h50.921v7.274H128Zm0,0" transform="translate(-69.805 -174.512)" fill="#5c6275"/>
        <path id="Path_12995" data-name="Path 12995" d="M274.664,80.607,223.226,29.17a11.19,11.19,0,0,0-15.414-.018L134.5,101.518H106.911A10.926,10.926,0,0,0,96,112.429v72.744a10.926,10.926,0,0,0,10.912,10.912H223.3a10.926,10.926,0,0,0,10.912-10.912V136.49l40.45-40.45a10.912,10.912,0,0,0,0-15.433ZM225.8,42.035l5.136,5.136L176.6,101.518H166.592ZM106.912,108.792h30.566l75.458-74.479a3.637,3.637,0,0,1,5.147,0l2.575,2.579-71.568,71.9H223.3a3.64,3.64,0,0,1,3.637,3.637v3.637H103.274V112.43a3.64,3.64,0,0,1,3.637-3.637Zm120.028,14.549v7.274H103.274v-7.274Zm-3.637,65.47H106.912a3.64,3.64,0,0,1-3.637-3.637V137.89H226.939v47.284A3.64,3.64,0,0,1,223.3,188.811ZM269.52,90.9,234.214,126.2V112.43A10.926,10.926,0,0,0,223.3,101.518h-36.42l49.2-49.2,33.433,33.433a3.64,3.64,0,0,1,0,5.147Zm0,0" transform="translate(-52.353 -14.225)" fill="#5c6275"/>
      </g>
      <rect id="Rectangle_1640" data-name="Rectangle 1640" width="280" height="280" transform="translate(-2050 6381)" fill="none"/>
    </g>
  </g>
</svg>
