<svg xmlns="http://www.w3.org/2000/svg" width="280" height="280" viewBox="0 0 280 280">
  <g id="booking_management" transform="translate(2720 -6050)">
    <g id="Group_8779" data-name="Group 8779" transform="translate(-1017 -266)">
      <rect id="Rectangle_1640" data-name="Rectangle 1640" width="280" height="280" transform="translate(-1703 6316)" fill="none"/>
      <g id="internet" transform="translate(-1663 6356)">
        <path id="Path_13005" data-name="Path 13005" d="M278.968,186.705l-7.923-2.638,3.736-7.468-12.413-12.413-7.468,3.736L252.262,160H234.709l-2.638,7.923-7.468-3.736L212.19,176.6l3.736,7.468L208,186.705v17.553l7.923,2.638-3.736,7.468L224.6,226.778l7.468-3.736,2.638,7.926h17.553l2.638-7.923,7.468,3.736,12.413-12.413-3.736-7.468,7.926-2.638Zm-35.484,21.681a12.9,12.9,0,1,1,12.9-12.9A12.9,12.9,0,0,1,243.484,208.387Zm0,0" transform="translate(-124.129 -95.484)" fill="#0babde"/>
        <path id="Path_13006" data-name="Path 13006" d="M157.161,128.258H112V96h45.161Zm0,0" transform="translate(-67 -57)" fill="#0babde"/>
        <path id="Path_13007" data-name="Path 13007" d="M193.548,167.742V54.839A16.148,16.148,0,0,0,177.419,38.71h-9.677V0H32.258V38.71H22.581A16.148,16.148,0,0,0,6.452,54.839v112.9H0v16.129A16.148,16.148,0,0,0,16.129,200H183.871A16.148,16.148,0,0,0,200,183.871V167.742ZM177.419,45.161a9.69,9.69,0,0,1,9.677,9.677v112.9h-6.452V58.065a6.458,6.458,0,0,0-6.452-6.452h-6.452V45.161ZM70.968,174.194h58.065v3.226a3.23,3.23,0,0,1-3.226,3.226H74.194a3.23,3.23,0,0,1-3.226-3.226Zm-45.161-6.452V58.065h6.452v90.323H167.742V58.065h6.452V167.742ZM38.71,32.258H161.29V141.935H38.71ZM161.29,6.452V25.806H38.71V6.452ZM12.9,54.839a9.69,9.69,0,0,1,9.677-9.677h9.677v6.452H25.806a6.458,6.458,0,0,0-6.452,6.452V167.742H12.9ZM193.548,183.871a9.69,9.69,0,0,1-9.677,9.677H16.129a9.69,9.69,0,0,1-9.677-9.677v-9.677H64.516v3.226a9.69,9.69,0,0,0,9.677,9.677h51.613a9.69,9.69,0,0,0,9.677-9.677v-3.226h58.065Zm0,0" fill="#5c6275"/>
        <path id="Path_13014" data-name="Path 13014" d="M272.129,208a16.129,16.129,0,1,0,16.129,16.129A16.148,16.148,0,0,0,272.129,208Zm0,25.806a9.677,9.677,0,1,1,9.677-9.677A9.69,9.69,0,0,1,272.129,233.806Zm0,0" transform="translate(-152.774 -124.129)" fill="#5c6275"/>
        <path id="Path_13019" data-name="Path 13019" d="M112,192h32.258v6.452H112Zm0,0" transform="translate(-66.839 -114.581)" fill="#5c6275"/>
        <path id="Path_13022" data-name="Path 13022" d="M112,192h26.643v19.29H112Zm0,0" transform="translate(-57.193 -146.774)" fill="#fff"/>
        <path id="Path_13020" data-name="Path 13020" d="M112,224h32.258v6.452H112Zm0,0" transform="translate(-66.839 -133.677)" fill="#5c6275"/>
        <path id="Path_13021" data-name="Path 13021" d="M112,256h32.258v6.452H112Zm0,0" transform="translate(-66.839 -152.774)" fill="#5c6275"/>
      </g>
    </g>
    <path id="Path_13023" data-name="Path 13023" d="M32,144h6.452v6.452H32Zm0,0" transform="translate(-2668.097 5958.064)" fill="#5c6275"/>
    <path id="Path_13024" data-name="Path 13024" d="M64,144h6.452v6.452H64Zm0,0" transform="translate(-2687.194 5958.064)" fill="#5c6275"/>
    <path id="Path_13025" data-name="Path 13025" d="M96,144h6.452v6.452H96Zm0,0" transform="translate(-2706.291 5958.064)" fill="#5c6275"/>
  </g>
</svg>
