<svg xmlns="http://www.w3.org/2000/svg" width="280" height="280" viewBox="0 0 280 280">
  <g id="helpling_as_a_provider" transform="translate(2110 -6358)">
    <g id="my_appointment" transform="translate(40 308)">
      <rect id="Rectangle_1639" data-name="Rectangle 1639" width="280" height="280" transform="translate(-2150 6050)" fill="none"/>
    </g>
    <g id="files-and-folders" transform="translate(-2061 6407)">
      <path id="Path_13026" data-name="Path 13026" d="M31,18H77.452V53.087H31Z" transform="translate(57.097 26.424)" fill="#0babde"/>
      <path id="Path_13027" data-name="Path 13027" d="M146.161,140.271V37.54L109.621,1H1V181H146.161V165.114h-5.806v10.08H6.806V6.806h98.71V41.645h34.839v98.625ZM111.323,10.912,136.25,35.839H111.323Z" fill="#5c6275"/>
      <path id="Path_13028" data-name="Path 13028" d="M74.677,39.839A34.839,34.839,0,1,0,39.839,74.677,34.877,34.877,0,0,0,74.677,39.839ZM20.14,61.1a20.279,20.279,0,0,1,39.4,0,28.865,28.865,0,0,1-39.4,0ZM31.129,31.129a8.71,8.71,0,1,1,8.71,8.71A8.72,8.72,0,0,1,31.129,31.129Zm8.71-20.323A29.014,29.014,0,0,1,63.95,55.986a25.968,25.968,0,0,0-14.3-14.229,14.516,14.516,0,1,0-19.626,0,25.968,25.968,0,0,0-14.3,14.229,29.014,29.014,0,0,1,24.111-45.18Z" transform="translate(7.613 7.613)" fill="#5c6275"/>
      <path id="Path_13029" data-name="Path 13029" d="M31,17H68.262v4.658H31Z" transform="translate(61.691 33.323)" fill="#fff"/>
      <path id="Path_13030" data-name="Path 13030" d="M31,21H68.262v4.658H31Z" transform="translate(61.691 38.639)" fill="#fff"/>
      <path id="Path_13031" data-name="Path 13031" d="M31,25H68.262v4.658H31Z" transform="translate(61.691 43.955)" fill="#fff"/>
      <path id="Path_13032" data-name="Path 13032" d="M126.935,31H5V60.032H126.935ZM57.258,36.806H74.677V54.226H57.258ZM51.452,54.226H34.032V36.806H51.452ZM80.484,36.806H97.9V54.226H80.484Zm-69.677,0H28.226V54.226H10.806ZM121.129,54.226H103.71V36.806h17.419Z" transform="translate(7.613 57.097)" fill="#5c6275"/>
      <path id="Path_13033" data-name="Path 13033" d="M5,57h5.806v5.806H5Z" transform="translate(7.613 106.581)" fill="#5c6275"/>
      <path id="Path_13034" data-name="Path 13034" d="M5,53h5.806v5.806H5Z" transform="translate(7.613 98.968)" fill="#5c6275"/>
      <path id="Path_13035" data-name="Path 13035" d="M5,49h5.806v5.806H5Z" transform="translate(7.613 91.355)" fill="#5c6275"/>
      <path id="Path_13036" data-name="Path 13036" d="M158.161,57.432H140.036L135.978,43h-7.894l-4.059,14.432H93.585L89.526,43H81.632L77.574,57.432H47.133L43.075,43H35.181L31.122,57.432H13v6.262l13.358,8.178L19.843,85.84l6.082,4.215,13.2-10.106,13.2,10.106,6.082-4.215L51.9,71.873l10.455-6.4,10.455,6.4L66.295,85.84l6.082,4.215,13.2-10.106,13.2,10.106,6.082-4.215L98.352,71.873l10.455-6.4,10.455,6.4L112.746,85.84l6.082,4.215,13.2-10.106,13.2,10.106,6.082-4.215L144.8,71.873l13.358-8.178Z" transform="translate(22.839 79.935)" fill="#0babde"/>
    </g>
  </g>
</svg>
