<svg xmlns="http://www.w3.org/2000/svg" width="119.441" height="21.234" viewBox="0 0 119.441 21.234"><g transform="translate(0)"><path d="M170.627,100.657a7.224,7.224,0,0,0-3.477.913V96.183h-3.059v16.783h3.059v-.757a6.793,6.793,0,0,0,3.477.957,6.258,6.258,0,0,0,0-12.509Zm-.55,9.7a4.477,4.477,0,0,1-2.926-1.046v-4.852a4.539,4.539,0,0,1,2.926-1.024,3.439,3.439,0,0,1,3.587,3.472A3.383,3.383,0,0,1,170.077,110.361Z" transform="translate(-164.092 -95.938)" fill="#fff"/><path d="M189.822,104.839v-1.691h-3.08v12.086h3.08V109.4a2.884,2.884,0,0,1,3.037-3.161,8.637,8.637,0,0,1,1.474.178v-3.361a2.311,2.311,0,0,0-.748-.134A4.523,4.523,0,0,0,189.822,104.839Z" transform="translate(-171.712 -98.206)" fill="#fff"/><rect width="3.059" height="12.086" transform="translate(24.909 4.941)" fill="#fff"/><path d="M203.026,95.814a1.8,1.8,0,0,0-1.76,1.825,1.781,1.781,0,0,0,1.76,1.8,1.763,1.763,0,0,0,1.738-1.8A1.782,1.782,0,0,0,203.026,95.814Z" transform="translate(-176.598 -95.814)" fill="#fff"/><path d="M217.131,102.925a5.486,5.486,0,0,0-3.191.979v-.757h-3.059v12.086h3.059v-8.569a3.88,3.88,0,0,1,2.64-.957c1.694,0,2.6.913,2.6,2.782v6.744h3.058v-6.744C222.236,104.572,220.63,102.925,217.131,102.925Z" transform="translate(-179.834 -98.206)" fill="#fff"/><path d="M241,103.148v.69a6.986,6.986,0,0,0-3.477-.913,5.988,5.988,0,1,0,0,11.975,6.917,6.917,0,0,0,3.345-.846c-.088,1.892-1.958,3-3.785,3a13.728,13.728,0,0,1-4.049-.712l-.594,2.292a14.077,14.077,0,0,0,5.369.8c4.533,0,6.249-3.405,6.249-6.522v-9.771Zm0,7.99a4.533,4.533,0,0,1-2.949.979,3.265,3.265,0,0,1-3.565-3.205,3.317,3.317,0,0,1,3.565-3.205,4.576,4.576,0,0,1,2.949.979Z" transform="translate(-186.762 -98.206)" fill="#fff"/></g><g transform="translate(59.699 0.245)"><path d="M260.594,105.707a3.241,3.241,0,0,1,2.685,1.469l1.98-1.847a5.751,5.751,0,0,0-4.665-2.4,6.25,6.25,0,1,0,0,12.486,5.724,5.724,0,0,0,4.621-2.426l-1.936-1.847a3.208,3.208,0,0,1-2.685,1.491,3.462,3.462,0,1,1,0-6.922Z" transform="translate(-254.059 -98.451)" fill="#aac7dd"/><rect width="3.081" height="16.782" transform="translate(13.533)" fill="#aac7dd"/><path d="M288.96,102.925a6.244,6.244,0,0,0,0,12.486,6.552,6.552,0,0,0,5.391-2.493l-1.958-1.647a3.814,3.814,0,0,1-3.081,1.491,3.308,3.308,0,0,1-3.411-2.693h8.846c0-.2.022-.445.022-.69C294.769,105.618,292.635,102.925,288.96,102.925Zm-3.036,5.164a3.13,3.13,0,0,1,3.036-2.693,2.651,2.651,0,0,1,2.883,2.693Z" transform="translate(-263.743 -98.451)" fill="#aac7dd"/><path d="M313.108,103.893a6.968,6.968,0,0,0-3.5-1,6.263,6.263,0,0,0,0,12.509,6.2,6.2,0,0,0,3.5-1.068v.89h3.059V103.136h-3.059Zm0,7.7a4.48,4.48,0,0,1-2.949,1.024,3.462,3.462,0,1,1,0-6.922,4.538,4.538,0,0,1,2.949,1.046Z" transform="translate(-270.749 -98.44)" fill="#aac7dd"/><path d="M333.23,102.925a5.486,5.486,0,0,0-3.19.979v-.757h-3.059v12.086h3.059v-8.569a3.88,3.88,0,0,1,2.64-.957c1.694,0,2.6.913,2.6,2.782v6.744h3.058v-6.744C338.335,104.572,336.729,102.925,333.23,102.925Z" transform="translate(-278.593 -98.451)" fill="#aac7dd"/></g></svg>