<svg xmlns="http://www.w3.org/2000/svg" width="280" height="280" viewBox="0 0 280 280">
  <g id="my_user_account" transform="translate(1870 -6050)">
    <g id="my_user_account-2" data-name="my_user_account" transform="translate(280 -695)">
      <rect id="Rectangle_1641" data-name="Rectangle 1641" width="280" height="280" transform="translate(-2150 6745)" fill="none"/>
      <g id="Group_8769" data-name="Group 8769" transform="translate(-337 1514)">
        <g id="account" transform="translate(-1773 5271)">
          <path id="Path_12927" data-name="Path 12927" d="M149.032,176A29.064,29.064,0,0,0,120,205.032v12.9h3.226a9.676,9.676,0,0,1,9.677-9.677,31.96,31.96,0,0,0,17.729-5.368l1.626-1.084,1.89,1.89a15.575,15.575,0,0,0,11.013,4.561,9.676,9.676,0,0,1,9.677,9.677h3.226v-12.9A29.064,29.064,0,0,0,149.032,176Zm0,0" transform="translate(-71.613 -105.032)" fill="#0babde"/>
          <path id="Path_12928" data-name="Path 12928" d="M193.548,225.032v-100H187.1v100h-6.452v-100h-6.452v100H116.129V214.619a16.208,16.208,0,0,0-10.465-15.1l-15.341-5.751v-2.733a19.348,19.348,0,0,0,5.4-8.154,12.885,12.885,0,0,0-2.177-25.588,12.445,12.445,0,0,1-8.732-3.616l-3.761-3.761-3.826,2.552A28.66,28.66,0,0,1,61.29,157.29a12.885,12.885,0,0,0-2.177,25.587,19.387,19.387,0,0,0,5.4,8.154v2.733l-15.338,5.754a16.2,16.2,0,0,0-10.468,15.1v10.413h-12.9V115.355h87.1V108.9h-87.1a6.458,6.458,0,0,0-6.452,6.452V225.032H12.9v-112.9a9.69,9.69,0,0,1,9.677-9.677H112.9V96H22.581A16.148,16.148,0,0,0,6.452,112.129v112.9H0v16.129A16.148,16.148,0,0,0,16.129,257.29H183.871A16.148,16.148,0,0,0,200,241.161V225.032ZM80.229,158.21l.025.025a18.931,18.931,0,0,0,10.068,5.207v13.2a12.9,12.9,0,0,1-25.806,0V163.513a35.012,35.012,0,0,0,15.713-5.3ZM54.839,170.193a6.431,6.431,0,0,1,3.226-5.555v11.108a6.422,6.422,0,0,1-3.226-5.552ZM77.419,196a19.26,19.26,0,0,0,6.452-1.129V196a6.452,6.452,0,0,1-12.9,0v-1.129A19.26,19.26,0,0,0,77.419,196ZM45.161,214.619a9.721,9.721,0,0,1,6.28-9.062l13.881-5.206a12.83,12.83,0,0,0,24.19,0l13.885,5.206a9.721,9.721,0,0,1,6.28,9.062v10.413h-6.452v-12.9H96.774v12.9H58.065v-12.9H51.613v12.9H45.161Zm25.806,16.865h58.065v3.226a3.23,3.23,0,0,1-3.226,3.226H74.194a3.23,3.23,0,0,1-3.226-3.226ZM100,170.193a6.431,6.431,0,0,1-3.226,5.555V164.641A6.422,6.422,0,0,1,100,170.193Zm93.548,70.968a9.69,9.69,0,0,1-9.677,9.677H16.129a9.69,9.69,0,0,1-9.677-9.677v-9.677H64.516v3.226a9.69,9.69,0,0,0,9.677,9.677h51.613a9.69,9.69,0,0,0,9.677-9.677v-3.226h58.065Zm0,0" transform="translate(0 -57.291)" fill="#5c6275"/>
          <path id="Path_12929" data-name="Path 12929" d="M48,448h6.452v6.452H48Zm0,0" transform="translate(-28.645 -267.355)" fill="#5c6275"/>
          <path id="Path_12930" data-name="Path 12930" d="M80,448h6.452v6.452H80Zm0,0" transform="translate(-47.742 -267.355)" fill="#5c6275"/>
          <path id="Path_12931" data-name="Path 12931" d="M112,448h6.452v6.452H112Zm0,0" transform="translate(-66.839 -267.355)" fill="#5c6275"/>
          <path id="Path_12932" data-name="Path 12932" d="M304.258,94.11V70.968H281.677A9.69,9.69,0,0,1,272,61.291V9.678A9.69,9.69,0,0,1,281.677,0h70.968a9.69,9.69,0,0,1,9.677,9.677V61.291a9.69,9.69,0,0,1-9.677,9.677H331.258Zm0,0" transform="translate(-162.323 0)" fill="#0babde"/>
        </g>
      </g>
      <rect id="Rectangle_1644" data-name="Rectangle 1644" width="28" height="7" transform="translate(-1989 6927)" fill="#5c6275"/>
      <rect id="Rectangle_1645" data-name="Rectangle 1645" width="47" height="7" transform="translate(-1989 6939)" fill="#5c6275"/>
    </g>
    <rect id="Rectangle_1642" data-name="Rectangle 1642" width="49" height="7" transform="translate(-1707 6113)" fill="#fff"/>
    <rect id="Rectangle_1643" data-name="Rectangle 1643" width="67" height="7" transform="translate(-1707 6127)" fill="#fff"/>
  </g>
</svg>
