<svg xmlns="http://www.w3.org/2000/svg" width="280" height="280" viewBox="0 0 280 280">
  <g id="placing_my_booking" transform="translate(2406 -6082)">
    <g id="Group_8778" data-name="Group 8778" transform="translate(-1232 32)">
      <g id="my_payments" transform="translate(402)">
        <g id="my_payments-2" data-name="my_payments" transform="translate(474 -331)">
          <rect id="Rectangle_1640" data-name="Rectangle 1640" width="280" height="280" transform="translate(-2050 6381)" fill="none"/>
        </g>
      </g>
      <g id="Group_8777" data-name="Group 8777" transform="translate(36 -20.484)">
        <g id="Group_8776" data-name="Group 8776" transform="translate(-1174 6125.484)">
          <path id="Path_13000" data-name="Path 13000" d="M207.856,232H107.581c-1.976,0-3.581.836-3.581,1.866v37.319c0,1.03,1.605,1.866,3.581,1.866H211.437V233.866C211.437,232.836,209.832,232,207.856,232Zm0,0" transform="translate(-81.212 -182.637)" fill="#0babde"/>
          <g id="money_2_" data-name="money (2)" transform="translate(0 0)">
            <path id="Path_12997" data-name="Path 12997" d="M180.962,165.274v-40.2a20.327,20.327,0,0,0-13.4-19.078V98.053A10.066,10.066,0,0,0,157.5,88H123.993v6.7H157.5a3.352,3.352,0,0,1,3.351,3.351v6.712c-.07,0-.137-.01-.208-.01a20.366,20.366,0,0,0-17.64,10.238L112.565,168.27a13.615,13.615,0,0,1-25.435-6.753v-26.6h-6.7v26.6a20.315,20.315,0,0,0,37.955,10.077l30.442-53.277a13.644,13.644,0,0,1,11.823-6.86c.07,0,.137.02.208.02v58.7a30.226,30.226,0,0,0-12.627,18.358H6.7V98.053A3.352,3.352,0,0,1,10.053,94.7h116.62V88H10.053A10.066,10.066,0,0,0,0,98.053V205.29a10.066,10.066,0,0,0,10.053,10.053H50.267v13.4h-13.4v6.7h93.832v-6.7h-13.4v-13.4h30.16v13.4a30.16,30.16,0,1,0,60.321,0V195.237A30.193,30.193,0,0,0,180.962,165.274Zm-13.4-51.866a13.575,13.575,0,0,1,6.7,11.665v40.2a29.9,29.9,0,0,0-6.7,1.562Zm10.053,58.37a23.488,23.488,0,0,1,23.458,23.458V205.29H154.153V195.237A23.488,23.488,0,0,1,177.611,171.779Zm-67.023,56.97H56.97v-13.4h53.618ZM10.053,208.641A3.352,3.352,0,0,1,6.7,205.29V195.237H147.451v13.4Zm167.558,43.565a23.488,23.488,0,0,1-23.458-23.458V211.993h46.916v16.756A23.488,23.488,0,0,1,177.611,252.206Z" transform="translate(0 -88)" fill="#5c6275"/>
            <rect id="Rectangle_1646" data-name="Rectangle 1646" width="6.702" height="13.405" transform="translate(174.26 90.481)" fill="#5c6275"/>
            <circle id="Ellipse_2" data-name="Ellipse 2" cx="18.715" cy="18.715" r="18.715" transform="translate(60.389 18.633)" fill="#fff" stroke="#5c6275" stroke-width="10"/>
          </g>
          <g id="Group_8775" data-name="Group 8775" transform="translate(71.545 39.729)">
            <path id="Path_13003" data-name="Path 13003" d="M-876.117,6151.326l.5,5.808,1.41,6.219,1.161,2.987,2.322,2.572.581,3.151v2.158h15.1v-4.065l2.074-3.317,1.908-3.07v-15.511l-1.078-1.244h-2.488l-1.161-.747-.747-1.327h-2.488l-.829-.663-.746-1.328-1.244-.5-1.327.5-.746-.829v-7.051l-1.825-1.161-2.074,1.161V6160.2l-2.322-.664-.581-2.4-1.078-5.144-.332-2.4-2.322-.661-1.659.661Z" transform="translate(877.387 -6133.094)" fill="#fff"/>
            <g id="good" transform="translate(0)">
              <path id="Path_13002" data-name="Path 13002" d="M312.126,188.588a3.129,3.129,0,0,0-1.171.231,3.119,3.119,0,0,0-4.2-2.1,3.141,3.141,0,0,0-3.025-2.329,3.1,3.1,0,0,0-1.049.193v-5.438a3.147,3.147,0,1,0-6.294,0v22.635a1.47,1.47,0,0,1-.392-.761l-1.381-7.6a3.336,3.336,0,0,0-6.618.6v.67a3.473,3.473,0,0,0,.045.549l1.888,11.323a5.261,5.261,0,0,0,1.077,2.413l2.594,3.242a3.16,3.16,0,0,1,.69,1.967v3.773h16.783v-3.773a3.158,3.158,0,0,1,.69-1.967l2.356-2.946a5.266,5.266,0,0,0,1.15-3.275V191.734a3.151,3.151,0,0,0-3.147-3.147ZM313.175,206a3.158,3.158,0,0,1-.69,1.967l-2.355,2.946a5.266,5.266,0,0,0-1.15,3.275v1.675H296.392v-1.675a5.274,5.274,0,0,0-1.15-3.277l-2.595-3.242a3.148,3.148,0,0,1-.645-1.448l-1.888-11.32a1.31,1.31,0,0,1-.016-.206v-.67a1.238,1.238,0,0,1,2.456-.22l1.381,7.6a3.561,3.561,0,0,0,3.505,2.926h1.049V179.147a1.049,1.049,0,1,1,2.1,0V195.93h2.1v-8.392a1.049,1.049,0,1,1,2.1,0v8.392h2.1v-6.294a1.049,1.049,0,1,1,2.1,0v6.294h2.1v-4.2a1.049,1.049,0,1,1,2.1,0Zm0,0" transform="translate(-288 -176)" fill="#5c6275"/>
            </g>
          </g>
          <rect id="Rectangle_1647" data-name="Rectangle 1647" width="43.296" height="7.272" transform="translate(28.486 73.627)" fill="#fff"/>
          <rect id="Rectangle_1648" data-name="Rectangle 1648" width="29.219" height="7.272" transform="translate(28.486 60.86)" fill="#fff"/>
          <rect id="Rectangle_1649" data-name="Rectangle 1649" width="24.933" height="7.272" transform="translate(22.855 34.216)" fill="#5c6275"/>
        </g>
        <path id="Path_13004" data-name="Path 13004" d="M-1003.563,6277.918s11.266,2.114,19.3-12.545" transform="translate(6.623 5.435)" fill="none" stroke="#5c6275" stroke-width="5"/>
      </g>
    </g>
  </g>
</svg>
