<svg xmlns="http://www.w3.org/2000/svg" width="16" height="16" viewBox="0 0 16 16"><g transform="translate(-71 -601)"><rect width="16" height="16" transform="translate(71 601)" fill="none"/><path d="M170.249,100.4a6.806,6.806,0,0,0-3.275.86V96.183h-2.882v15.812h2.882v-.713a6.4,6.4,0,0,0,3.275.9,5.9,5.9,0,0,0,0-11.785Zm-.518,9.143a4.218,4.218,0,0,1-2.757-.986v-4.571a4.276,4.276,0,0,1,2.757-.965,3.24,3.24,0,0,1,3.379,3.271A3.187,3.187,0,0,1,169.731,109.541Z" transform="translate(-91.092 504.817)" fill="#0babfe"/></g></svg>